<svg width="39" height="43" viewBox="0 0 39 43" fill="none" xmlns="http://www.w3.org/2000/svg">
<path fill-rule="evenodd" clip-rule="evenodd" d="M24.8995 12.1112C36.1823 -0.915975 47.193 18.3535 30.3369 21.4746C47.193 24.7314 36.0463 43.8651 24.8995 30.8378C30.6088 47.1218 8.45112 46.9862 14.1605 30.8378C2.87772 43.8651 -8.13314 24.7314 8.723 21.4746C-8.26907 18.3535 2.87772 -0.780278 14.1605 12.1112C8.31519 -4.03708 30.6088 -4.03708 24.8995 12.1112ZM19.4619 19.032C20.8214 19.032 22.0448 20.1176 22.0448 21.4746C22.0448 22.8315 20.8214 24.0529 19.4619 24.0529C18.1026 24.0529 17.015 22.8315 17.015 21.4746C17.015 20.1176 18.1026 19.032 19.4619 19.032Z" fill="#F29C9F"/>
</svg>
